<mxfile host="app.diagrams.net" modified="2024-05-27T11:30:09.289Z" agent="Mozilla/5.0 (Windows NT 10.0; Win64; x64) AppleWebKit/537.36 (KHTML, like Gecko) Chrome/121.0.0.0 Safari/537.36" etag="EJ0GrioSslCMS6dPyCfl" version="24.4.8" type="device">
  <diagram name="PÃ¡gina-1" id="HdGTkWyh92yAQT41dvv-">
    <mxGraphModel dx="1434" dy="782" grid="1" gridSize="10" guides="1" tooltips="1" connect="1" arrows="1" fold="1" page="1" pageScale="1" pageWidth="827" pageHeight="1169" math="0" shadow="0">
      <root>
        <mxCell id="0" />
        <mxCell id="1" parent="0" />
        <mxCell id="L7dsEmiv85f3Rtklv7uQ-48" value="" style="rounded=1;whiteSpace=wrap;html=1;" parent="1" vertex="1">
          <mxGeometry x="307" y="280" width="246" height="20" as="geometry" />
        </mxCell>
        <mxCell id="L7dsEmiv85f3Rtklv7uQ-49" value="" style="rounded=1;whiteSpace=wrap;html=1;" parent="1" vertex="1">
          <mxGeometry x="307" y="340" width="246" height="20" as="geometry" />
        </mxCell>
        <mxCell id="L7dsEmiv85f3Rtklv7uQ-50" value="&lt;span style=&quot;font-size: 36px;&quot;&gt;LOGIN&lt;/span&gt;" style="text;strokeColor=none;fillColor=none;html=1;fontSize=24;fontStyle=1;verticalAlign=middle;align=center;" parent="1" vertex="1">
          <mxGeometry x="380" y="140" width="100" height="40" as="geometry" />
        </mxCell>
        <mxCell id="L7dsEmiv85f3Rtklv7uQ-52" value="&lt;font size=&quot;3&quot;&gt;Email ou CPF&lt;/font&gt;" style="text;strokeColor=none;fillColor=none;html=1;fontSize=24;fontStyle=1;verticalAlign=middle;align=center;" parent="1" vertex="1">
          <mxGeometry x="307" y="250" width="100" height="40" as="geometry" />
        </mxCell>
        <mxCell id="L7dsEmiv85f3Rtklv7uQ-53" value="&lt;font style=&quot;font-size: 18px;&quot;&gt;Senha&lt;/font&gt;" style="text;strokeColor=none;fillColor=none;html=1;fontSize=24;fontStyle=1;verticalAlign=middle;align=center;" parent="1" vertex="1">
          <mxGeometry x="290" y="310" width="100" height="40" as="geometry" />
        </mxCell>
      </root>
    </mxGraphModel>
  </diagram>
</mxfile>
